<svg width="800" height="800" viewBox="0 0 800 800" fill="none" xmlns="http://www.w3.org/2000/svg">
<path fill-rule="evenodd" clip-rule="evenodd" d="M340 165L362.5 87.5C375 47.5 432.5 47.5 445 87.5L467.5 165C450 170 430 175 405 175C380 175 360 170 340 165ZM272.5 400C302.5 422.5 347.5 442.5 405 442.5C462.5 442.5 507.5 420 537.5 400L502.5 280C480 295 447.5 305 405 305C362.5 305 330 292.5 307.5 280L272.5 400ZM560 472.5L572.5 510C535 537.5 477.5 562.5 407.5 562.5C335 562.5 280 537.5 242.5 510L255 472.5H197.5C185 472.5 177.5 480 172.5 490L117.5 700C112.5 715 125 732.5 142.5 732.5H670C687.5 732.5 697.5 717.5 695 700L637.5 490C635 480 625 472.5 612.5 472.5H560Z" fill="white"/>
</svg>
